<?xml version="1.0" encoding="UTF-8" standalone="no"?>
<svg width="30px" height="30px" viewBox="0 0 30 30" version="1.1" xmlns="http://www.w3.org/2000/svg" xmlns:xlink="http://www.w3.org/1999/xlink" xmlns:sketch="http://www.bohemiancoding.com/sketch/ns">
    <!-- Generator: Sketch 3.3.3 (12072) - http://www.bohemiancoding.com/sketch -->
    <title>billing-30x30</title>
    <desc>Created with Sketch.</desc>
    <defs/>
    <g id="01-Kontur-Product-Icons" stroke="none" stroke-width="1" fill="none" fill-rule="evenodd" sketch:type="MSPage">
        <g id="product-icons" sketch:type="MSArtboardGroup" transform="translate(-125.000000, -1915.000000)">
            <g id="30-SKB" sketch:type="MSLayerGroup" transform="translate(119.000000, 472.000000)">
                <g id="billing-30x30" transform="translate(6.000000, 1443.000000)" sketch:type="MSShapeGroup">
                    <path d="M30,9.4996374 L30,26.0007252 C30,28.2132053 28.2094637,30 26.0007252,30 L3.9992748,30 C1.78679466,30 0,28.2094637 0,26.0007252 L0,3.9992748 C0,1.78679466 1.79053632,0 3.9992748,0 L20.5003626,0 L30,0 L30,9.4996374 Z" id="sales-30x30" fill="#8E3B4B"/>
                    <g id="Sales-30" transform="translate(5.000000, 4.000000)" stroke="#FFFFFF" stroke-width="1.79999995" stroke-linecap="round" stroke-linejoin="round">
                        <path d="M3.75,3.5 C5.83333333,9.33333333 1.66666667,12.6666667 1.66666667,12.6666667 L7.91666667,12.6666667 C7.91666667,12.6666667 12.0833333,12.6666667 11.25,8.5 C10.2983872,2.79939514 3.75,3.5 3.75,3.5 Z M3.76139323,3.48830159 C6.26139323,3.48830159 18.3333333,2.08164466 18.3333333,11 L11.25,11 M9,3.5 L9,0 L13.5,0 L12.5,1 L16.6666667,1 M9,16.5 L9,13 M20.8291009,14.9574585 L15.1011155,14.9574585 C14.6418718,14.9574585 13.9960937,15.2001398 13.6576471,15.4995024 L11.5698417,17.3462067 L7.3877429,17.3462067 L6.41040462,16.337653 C6.09936275,16.0166767 5.47373678,15.7537079 5.01633642,15.7537079 L0.829100927,15.7537079 C0.829100927,15.7537079 0.937431165,17.160601 1.2097168,17.5539761 C1.58043528,18.0895586 1.8264974,18.6112518 2.5,18.6112518 L2.5,19.8056259 C2.5,20.6018753 3.33333333,21 3.75,21 L12.9938272,21 C15.308642,21 18.9512437,14.9574585 18.9512437,14.9574585" id="sales-30"/>
                    </g>
                </g>
            </g>
        </g>
    </g>
</svg>