<?xml version="1.0" encoding="UTF-8" standalone="no"?>
<svg width="41px" height="43px" viewBox="0 0 41 43" version="1.1" xmlns="http://www.w3.org/2000/svg" xmlns:xlink="http://www.w3.org/1999/xlink">
    <!-- Generator: Sketch 3.6.1 (26313) - http://www.bohemiancoding.com/sketch -->
    <title>Billing 64</title>
    <desc>Created with Sketch.</desc>
    <defs></defs>
    <g id="01-Kontur-Product-Icons" stroke="none" stroke-width="1" fill="none" fill-rule="evenodd" stroke-linecap="round" stroke-linejoin="round">
        <g id="product-icons" transform="translate(-1959.000000, -125.000000)" stroke="#FFFFFF" stroke-width="2.5">
            <g id="64-Stroke-lite" transform="translate(506.000000, 125.000000)">
                <g id="Billing-64" transform="translate(1454.000000, 1.000000)">
                    <path d="M38.4474271,28.4702148 L27.3050891,28.4686387 C26.445211,28.4686387 25.2307416,28.8048908 24.5970412,29.3788834 L20.767443,32.8654734 L12.9369697,32.8654734 L11.0937548,31.245552 C10.5113665,30.6301177 9.33437599,30.4905894 8.47794923,30.4905894 L0.63785798,30.4905894 C0.63785798,30.4905894 1.13414237,36.2272269 3.48462169,36.2272269 L3.48462159,38.1653498 C3.48462159,39.6920642 4.61619331,40.5174652 5.9327097,40.5174652 L23.5290131,40.4702598 C27.8632235,40.4702598 34.8946483,28.5513293 34.8946483,28.5513293 M16.5222482,32.8020833 L16.5222482,25.0806478 M6.22356936,6.17796443 C10.1241921,18.3638682 2.33234477,25.5 2.33234477,25.5 L14.0342129,25.5 C14.0342129,25.5 21.8260602,25.3272417 20.2658111,16.6230248 C18.0380491,5.17463198 6.22356936,6.17796443 6.22356936,6.17796443 Z M6.2715907,6.17718445 C11.0934606,6.5106375 33.5463075,4.02098762 33.5463075,22.5 L19.5591636,22.4999994 M16.5069238,6.26293934 L16.5,0.503602627 L23.8781806,0.5 L22.7161081,2.34814777 L30.3340886,2.34814777" id="Billing-64-Copy-2"></path>
                </g>
            </g>
        </g>
    </g>
</svg>