<?xml version="1.0" encoding="UTF-8" standalone="no"?>
<svg width="26px" height="26px" viewBox="0 0 26 26" version="1.1" xmlns="http://www.w3.org/2000/svg" xmlns:xlink="http://www.w3.org/1999/xlink" xmlns:sketch="http://www.bohemiancoding.com/sketch/ns">
    <!-- Generator: Sketch 3.3.3 (12072) - http://www.bohemiancoding.com/sketch -->
    <title>billing-stroke-26x26</title>
    <desc>Created with Sketch.</desc>
    <defs/>
    <g id="01-Kontur-Product-Icons" stroke="none" stroke-width="1" fill="none" fill-rule="evenodd" sketch:type="MSPage">
        <g id="product-icons" sketch:type="MSArtboardGroup" transform="translate(-1296.000000, -196.000000)">
            <g id="36-Stroke" sketch:type="MSLayerGroup" transform="translate(512.000000, 196.000000)">
                <g id="Billing-36" transform="translate(787.000000, 1.000000)" stroke-width="1.79999995" stroke="#8E3B4B" stroke-linecap="round" sketch:type="MSShapeGroup" stroke-linejoin="round">
                    <path d="M21.5595703,15.9872396 L15.3933938,15.9872396 C14.899018,15.9872396 14.2038378,16.2625651 13.8395,16.6021964 L11.5624078,18.5286719 L7.06037831,18.5286719 L6.03784325,17.5530906 C5.70300666,17.1889382 5.02952028,16.8905963 4.53712878,16.8905963 L0.0295696259,16.8905963 C0.0295696259,16.8905963 0.112061319,18.6896005 0.405176811,19.1358904 C0.804255271,19.7435166 1.72516031,20.3353852 1.79416672,20.3353852 L1.79416672,21.6904203 C1.79416672,22.5937769 2.69125009,23.0454553 3.13979177,23.0454553 L13.090772,23.0454553 C15.5826703,23.0454553 19.7654036,15.9872396 19.7654036,15.9872396 M8.97083362,18.5286719 L8.97083362,14.0118885 M3.13979177,4.07496515 C5.38250017,10.3984619 0.897083362,14.0118885 0.897083362,14.0118885 L7.62520858,14.0118885 C7.62520858,14.0118885 12.1106254,14.0118885 11.213542,9.49510518 C10.284882,3.58152523 3.13979177,4.07496515 3.13979177,4.07496515 Z M3.15205658,4.06228375 C5.84330666,4.06228374 18.8387506,2.53742824 18.8387506,12.2051752 L11.213542,12.2051752 M8.97083362,4.00677085 L8.97083362,0.0599975586 L13.4562504,0.0599975586 L12.5591671,0.963354231 L17.0445839,0.963354231"/>
                </g>
                <g id="---SLICES-36-(26x26)"/>
            </g>
        </g>
    </g>
</svg>